<svg xmlns="http://www.w3.org/2000/svg" viewBox="0 0 118.45 45.22"><path fill="#f26861" d="M0,24.28l2.54-.94c1,5.82,6.85,9.72,14.46,9.72,6.81,0,11.18-3,11.18-7.23,0-3.34-2.68-5.31-8.79-6.48l-7.56-1.46c-6.52-1.22-9.53-3.71-9.53-8C2.3,4,7.28.23,14.7.23c6.62,0,11.93,3.43,13.57,8.55l-2.4,1.13c-1.36-4.27-5.72-7.14-11.12-7.14-5.83,0-9.68,2.77-9.68,6.86,0,3,2.26,4.69,7.42,5.68L20,16.72C27.47,18.08,30.9,20.9,31,25.55c0,6-5.54,10.05-14,10.05C8.17,35.6,1.5,31,0,24.28Z"/><path fill="#f26861" d="M84.19,10.8V23a10.45,10.45,0,0,1-10.76,10.9c-5.77,0-9.67-4-9.67-9.91V10.8H61.18V24.09c0,7.28,4.88,12.21,12.07,12.21a11.7,11.7,0,0,0,10.89-6.53h0V33c0,6.11-4.6,9.82-11.65,9.82-5.68,0-9.68-1.48-12.8-5.42L44.63,19.82l12.26-9H52.8l-14.88,11h-.05V0H35.29V34.42h2.58V24.89l4.79-3.52L57.87,39.18h0c3.69,4.79,8.11,6,14.68,6,8.64,0,14.23-4.6,14.23-12.21V10.8Z"/><path fill="#f26861" d="M116.81,29.25A16.79,16.79,0,0,1,106,32.92c-7,0-12.39-3.9-12.82-9.35H118.4a7.74,7.74,0,0,0,0-1.08c-.1-7.32-5.73-12.63-13.81-12.63-8.31,0-14.23,5.31-14.23,12.63,0,7.47,6.48,12.87,15.5,12.87a19.45,19.45,0,0,0,12.32-4.15Zm-12.22-16.9c6.06,0,10.66,3.48,11.13,8.88H93.18C93.7,16,98.35,12.35,104.59,12.35Z"/></svg>
